<?xml version="1.0" encoding="utf-8"?>
<!-- Generator: Adobe Illustrator 16.0.4, SVG Export Plug-In . SVG Version: 6.00 Build 0)  -->
<!DOCTYPE svg PUBLIC "-//W3C//DTD SVG 1.1//EN" "http://www.w3.org/Graphics/SVG/1.1/DTD/svg11.dtd">
<svg version="1.1" id="Layer_1" xmlns="http://www.w3.org/2000/svg" xmlns:xlink="http://www.w3.org/1999/xlink" x="0px" y="0px"
	 width="432px" height="198px" viewBox="0 0 432 198" enable-background="new 0 0 432 198" xml:space="preserve">
<rect x="-190" y="-126" fill="#222514" width="87" height="122"/>
<path d="M211.243,139.069c-0.46-0.908-0.941-1.729-1.628-2.486c-0.781-0.863-3.575,0.248-2.701,1.211
	c0.166,0.184,0.317,0.367,0.46,0.553c-4.036-0.934-7.572-4.738-9.859-7.82c-3.412-4.596-4.944-10.789-6.04-16.311
	c-1.087-5.476-1.558-11.056-2.139-16.6c-0.725-6.922-1.176-13.84-1.191-20.802c-0.001-0.536-0.441-0.777-0.98-0.809
	c-0.435-1.286-1.14-2.374-2.263-2.942c-3.654-1.848-6.547,3.402-7.599,5.97c-1.997,4.877-3.164,10.18-4.128,15.341
	c-0.944,5.054-1.694,10.203-2.229,15.315c-0.509,4.846-0.656,9.893,0.628,14.635c0.402,1.482,0.948,3.605,2.675,4.092
	c0.029,0.006,0.059,0.012,0.088,0.02c-0.18,0.547-0.359,1.092-0.548,1.637c-0.925,2.668-1.995,5.309-3.391,7.771
	c-0.739,1.303-2.019,3.395-3.368,3.801c-1.811,0.547-3.814-3.361-4.442-4.828c-1.521-3.545-2.177-7.459-2.86-11.234
	c-1.956-10.818-3.178-21.614-3.371-32.62c-0.049-2.845-0.018-5.691-0.047-8.538c-0.028-2.715-0.391-5.464-0.357-8.169
	c0.027-2.327,0.812-6.295-1.377-7.846c-1.074-0.762-2.697-0.283-3.657,0.407c-1.326,0.954-1.961,2.71-2.521,4.17
	c-1.778,4.63-3.109,9.297-3.903,14.2c-0.763,4.708-1.244,9.591-1.318,14.394c-0.332-2.975-0.691-5.947-1.113-8.913
	c-0.723-5.084-1.388-10.628-3.601-15.325c-0.621-1.319-1.432-2.573-2.859-3.083c-2.655-0.952-4.403,1.794-5.264,3.829
	c-3.031,7.152-3.451,15.229-3.469,22.887c-0.004,1.709,0.048,3.412,0.133,5.115c-0.5-3.688-0.919-7.39-1.394-11.083
	c-0.536-4.172-0.653-8.721-1.864-12.755c-0.324-1.083-2.483-0.475-2.843,0.298c-1.975,4.235-1.577,8.964-1.987,13.501
	c-0.555,6.144-0.591,12.367-0.794,18.53c-0.271,8.252-0.373,16.641-1.22,24.863c-0.174,1.691-0.581,6.76-2.443,7.389
	c-2.226,0.754-4.241-4.945-4.741-6.262c-3.138-8.266-4.177-17.252-5.431-25.938c-0.536-3.711-0.956-7.519-1.843-11.165
	c-0.394-1.617-0.608-4.225-2.079-5.296c-1.631-1.188-3.631,0.149-4.684,1.445c-1.712,2.113-2.616,4.9-3.248,7.501
	c-1.449,5.974-0.801,12.024-0.787,18.083c0.006,2.785,0.091,5.568,0.211,8.35c-1.248-5.672-2.552-11.357-4.403-16.861
	c-0.866-2.576-2.58-8.794-6.47-7.704c-3.046,0.853-3.666,4.274-4.131,6.981c-0.823,4.785-0.897,9.609-0.697,14.457
	c0.013,0.303,0.028,0.607,0.042,0.91c-0.526-3.141-1.054-6.277-1.533-9.428c-0.326-2.148-0.666-4.293-1.04-6.434
	c-0.347-1.982-0.587-4.094-1.392-5.95c-0.474-1.092-2.714-0.492-2.936,0.542c-1.194,5.586-1.21,11.346-1.683,17.02
	c-0.5,5.986-0.942,11.977-1.248,17.975c-0.184,3.605-0.407,7.221-1.089,10.771c-0.51,2.654-2.169,9.293-6.095,8.354
	c-2.075-0.494-3.432-2.971-4.42-4.65c-1.453-2.471-2.524-5.164-3.459-7.867c-1.758-5.084-2.798-10.4-3.746-15.684
	c-0.365-2.035-0.757-4.055-1.126-6.076c3.004-4.471,5.186-9.533,6.548-14.66c0.689-2.592,1.139-5.307,1.488-7.968
	c0.356-2.715,0.639-5.746-0.216-8.397c-0.792-2.455-3.134-3.224-5.492-2.571c-2.858,0.791-4.212,3.648-5.036,6.242
	c-2.324,7.312-2.086,15.896-1.08,23.36c0.192,1.43,0.416,2.857,0.66,4.283c-1.43,2.018-3.026,3.906-4.787,5.613
	c-3.392,3.289-7.653,6.158-12.539,5.918c-2.303-0.113-4.563-0.836-6.741-1.539c-1.843-0.598-3.72-1.033-5.547-1.613
	c-1.078-0.34-3.453,1.229-1.745,1.77c2.031,0.645,4.106,1.146,6.145,1.805c2.404,0.777,4.864,1.361,7.393,1.486
	c4.938,0.24,9.279-2.137,13.05-5.098c1.962-1.541,3.736-3.303,5.337-5.217c0.577,3.045,1.219,6.078,1.843,9.094
	c1.09,5.26,2.529,10.469,4.794,15.354c1.658,3.576,3.867,7.893,8.204,8.408c3.493,0.416,6.441-2.492,7.848-5.346
	c1.585-3.215,2.044-6.961,2.376-10.486c0.444-4.717,0.571-9.463,0.899-14.189c0.316-4.557,0.697-9.107,1.087-13.656
	c0.108-1.262,0.189-2.518,0.272-3.768c0.141,1.107,0.274,2.197,0.435,3.24c0.657,4.262,1.338,8.516,2.077,12.764
	c1.423,8.18,2.211,16.475,4.691,24.436c0.344,1.104,2.84,0.484,2.936-0.543c0.493-5.293-0.38-10.568-1.137-15.795
	c-0.829-5.713-1.171-11.502-1.194-17.273c-0.017-4.238,0.27-8.602,1.407-12.707c0.183-0.662,0.437-1.35,0.856-1.906
	c0.422,0.33,0.739,0.852,1.009,1.275c1.252,1.967,1.969,4.33,2.673,6.531c0.963,3.008,1.747,6.072,2.494,9.141
	c1.419,5.828,2.583,11.717,3.931,17.562c0.298,1.293,0.575,2.619,1.04,3.865c0.41,1.098,2.778,0.492,2.936-0.541
	c0.402-2.627,0.022-5.396-0.14-8.035c-0.202-3.305-0.38-6.607-0.498-9.914c-0.181-5.111-0.427-10.281-0.315-15.396
	c0.104-4.762,0.693-9.737,2.971-13.993c0.263-0.49,0.572-0.955,0.914-1.396c0.328,0.52,0.482,1.219,0.643,1.768
	c0.679,2.33,1.056,4.748,1.453,7.137c1.612,9.694,2.527,19.507,5.286,28.974c1.236,4.242,4.194,13.609,10.413,10.139
	c3.051-1.703,3.496-6.223,3.814-9.307c0.405-3.932,0.465-7.945,0.677-11.891c0.422-7.883,0.565-15.775,0.902-23.661
	c0.151-3.533,0.433-7.057,0.584-10.588c0.026-0.615,0.049-1.238,0.079-1.864c0.147,1.464,0.279,2.921,0.462,4.335
	c0.584,4.514,1.059,9.048,1.726,13.55c1.159,7.827,1.804,15.87,4.835,23.263c0.487,1.188,2.976,0.418,2.927-0.785
	c-0.496-12.242-2.733-24.292-2.11-36.583c0.238-4.687,0.901-9.327,2.278-13.817c0.478-1.559,1.021-3.125,1.91-4.5
	c0.112,0.086,0.215,0.185,0.316,0.291c1.222,1.274,1.768,3.219,2.265,4.86c0.788,2.605,1.296,5.297,1.757,7.977
	c1.111,6.453,1.773,12.982,2.446,19.492c0.353,3.421,0.689,6.843,1.104,10.255c0.256,2.105,0.433,4.352,1.122,6.373
	c0.379,1.113,2.785,0.477,2.936-0.543c0.844-5.713,0.421-11.492,0.151-17.233c-0.275-5.834,0.051-11.648,0.724-17.448
	c0.635-5.478,1.843-10.796,3.773-15.961c0.505-1.352,0.953-2.884,1.834-4.062c0.018,0.033,0.038,0.067,0.058,0.108
	c0.136,0.281,0.184,0.615,0.245,0.917c0.198,0.987,0.181,2.023,0.178,3.024c-0.015,4.643,0.312,9.277,0.319,13.929
	c0.009,5.874,0.157,11.734,0.597,17.592c0.698,9.292,1.979,18.825,4.364,27.858c1.189,4.504,4.07,11.848,10.022,9.41
	c4.169-1.707,6.203-7.486,7.651-11.311c0.469-1.238,0.903-2.486,1.315-3.738c0.528-0.297,1.015-0.695,1.45-1.154
	c1.499-1.588,2.274-3.984,3.008-5.998c0.932-2.553,1.526-5.227,2.038-7.893c1.031-5.376,1.695-10.845,2.409-16.27
	c0.057,0.571,0.112,1.143,0.172,1.713c0.679,6.39,1.247,12.793,2.662,19.073c1.267,5.619,3.27,11.393,7.002,15.865
	c3.299,3.953,8.133,7.588,13.538,7.057C210.047,140.351,211.621,139.813,211.243,139.069z M44.959,118.833
	c-0.204-3.652,0.114-7.322,0.571-10.946c0.349-2.771,0.844-5.68,2.189-8.161c1.18-2.178,2.909-2.212,3.69,0.213
	c1.376,4.266-0.085,9.726-0.992,13.998c-0.905,4.262-2.478,8.443-4.622,12.297C45.408,123.79,45.098,121.331,44.959,118.833z
	 M174.641,124.147c-0.324-1.096-0.548-2.236-0.736-3.363c-0.455-2.719-0.417-5.502-0.27-8.244
	c0.271-5.075,1.191-10.097,1.935-15.117c0.829-5.606,2.104-11.177,3.9-16.555c0.704-2.106,1.552-4.265,3.11-5.895
	c0.92-0.962,2.02,3.664,2.135,4.296c0.169,0.919,0.216,1.877,0.19,2.845c-0.057,0.788-0.117,1.575-0.182,2.363
	c-0.094,0.824-0.209,1.639-0.317,2.425c-0.405,2.941-1.087,5.841-1.799,8.721c-1.378,5.576-2.73,11.121-3.981,16.723
	c-0.99,4.439-2.071,8.869-3.384,13.227C174.943,124.952,174.675,124.261,174.641,124.147z"/>
<path d="M423.012,72.298c-4.662-2.308-10.308-1.939-15.382-2.035c-6.425-0.122-12.867,0.454-19.138,1.876
	c-6.088,1.381-12.406,3.794-17.22,7.865c-4.013,3.395-6.828,7.877-10.219,11.842c0.181-1.04,0.477-2.072,0.725-3.065
	c0.631-2.528,1.222-5.048,1.981-7.543c1.575-5.174,3.298-10.347,5.079-15.452c1.791-5.129,3.515-10.281,4.873-15.543
	c0.598-2.309,0.998-4.661,1.586-6.971c0.484-1.901,0.716-3.661-0.43-5.354c-0.247-0.365-1.22-0.173-1.533-0.074
	c-3.678,1.165-5.812,4.135-7.563,7.415c-2.263,4.235-4.109,8.791-5.71,13.309c-3.255,9.185-5.665,18.724-8.424,28.068
	c-0.885,2.998-1.921,6.093-3.67,8.71c-0.562,0.841-1.3,1.985-2.179,1.676c-1.553-0.545-1.997-3.51-2.271-4.862
	c-2.214-10.955-0.104-22.173,0.874-33.143c0.357-4.016,0.493-8.053,0.141-12.075c-0.183-2.083-0.227-5.788-3.132-5.533
	c-2.255,0.198-3.66,2.072-4.764,3.847c-1.737,2.799-3.215,5.728-4.416,8.796c-0.341,0.873-0.66,1.752-0.958,2.639
	c0.028-2.419-0.031-4.839-0.237-7.259c-0.076-0.91-2.689-0.027-2.918,0.606c-0.853,2.356-0.964,4.941-1.343,7.403
	c-0.42,2.723-0.855,5.443-1.338,8.155c-1.007,5.667-2.135,11.338-3.333,16.969c-0.62,2.917-5.854,25.556-11.639,21.261
	c-2.07-1.537-2.888-4.636-3.503-6.999c-0.63-2.427-0.994-4.928-1.249-7.421c-1.151-11.287,0.295-22.613-0.435-33.914
	c-0.054-0.826-2.775-0.131-2.919,0.606c-1.03,5.306-1.451,10.695-2.097,16.053c-0.648,5.378-1.884,10.796-2.997,16.098
	c-1.031,4.898-2.298,9.84-3.898,14.587c-0.625,1.852-2.972,8.158-5.382,6.524c-1.913-1.298-2.782-4.062-3.46-6.142
	c-0.812-2.488-1.34-5.077-1.738-7.662c-1.507-9.79-1.36-19.592-1.75-29.459c-0.031-0.788-2.82-0.17-2.918,0.605
	c-1.335,10.566-3.554,20.946-5.328,31.434c-1.237,7.316-2.917,15.225-7.464,21.271c-2.614,3.476-6.37,5.89-10.808,4.507
	c-4.271-1.334-7.9-4.943-10.701-8.294c-0.832-0.995-1.666-2.018-2.554-2.967c1.166-0.333,2.28-0.756,3.261-1.195
	c3.613-1.615,6.612-4.308,9.064-7.375c4.742-5.934,7.4-13.729,8.172-21.234c0.277-2.693,0.393-7.346-3.051-8.078
	c-4.23-0.899-7.089,2.766-9.699,5.413c-6.407,6.501-10.233,15.135-12.464,23.875c-0.404,1.585-0.747,3.18-1.048,4.781
	c-0.221-0.058-0.444-0.108-0.675-0.148c-0.421-0.075-1.225-0.084-1.939,0.073c-0.146-1.091-0.293-2.182-0.434-3.274
	c-0.832-6.465-1.534-12.983-2.07-19.53c0.677-2.08,1.317-4.174,1.915-6.286c3.216-11.346,5.765-23.03,7.21-34.737
	c0.69-5.588,1.009-11.246,0.468-16.861c-0.327-3.392-0.975-7.667-3.242-10.392c-1.888-2.271-5.687-0.264-6.755,1.858
	c-0.765,1.52-1.015,3.29-1.087,4.975c-0.129,2.981-0.972,6.035-1.28,9.021c-1.813,17.529-1.589,35.356-0.157,53.003
	c-0.979,3.045-2.05,6.061-3.249,9.024c-1.43,3.531-2.581,7.636-5.629,10.156c-1.245,1.029,1.68,0.834,2.304,0.318
	c3.211-2.653,4.596-6.707,6.063-10.468c0.363-0.932,0.717-1.868,1.064-2.804c0.438,4.521,0.948,9.025,1.519,13.507
	c1.246,9.795,2.771,19.554,4.295,29.31c0.004,0.266,0.008,0.531,0.013,0.797c0.14,7.051,0.757,14.088,1.669,21.078
	c0.473,3.609,1.015,7.197,1.836,10.74c0.781,3.373,1.274,6.791,2.516,10.041c0.339,0.883,2.97,0.129,2.927-0.783
	c-0.543-11.904-3.102-23.674-4.911-35.428c-0.389-2.539-0.785-5.078-1.179-7.617c-0.177-7.055,0.048-14.144,0.956-21.122
	c0.148-0.008,0.298-0.015,0.446-0.027c0.943,0.974,1.811,2.034,2.668,3.054c2.782,3.312,5.896,6.257,9.792,8.234
	c3.815,1.934,8.011,1.531,11.751-0.311c6.499-3.199,9.562-10.794,11.408-17.339c1.375-4.88,1.858-9.888,2.925-14.82
	c0.708-3.276,1.358-6.565,1.952-9.864c0.216,4.982,0.584,9.955,1.398,14.917c0.456,2.78,1.104,5.549,2.071,8.198
	c0.767,2.1,1.866,4.511,3.965,5.562c2.151,1.076,4.947-0.32,6.479-1.836c3.239-3.204,4.283-8.071,5.422-12.314
	c1.548-5.759,2.809-11.52,3.888-17.386c0.2-1.084,0.381-2.169,0.558-3.253c-0.075,4.77-0.047,9.538,0.438,14.301
	c0.272,2.665,0.711,5.319,1.413,7.906c0.654,2.401,1.639,5.207,3.718,6.75c2.092,1.556,5.021,0.733,7.035-0.517
	c3.563-2.213,5.313-6.688,6.648-10.459c1.954-5.519,3.276-11.142,4.385-16.884c0.62-3.204,1.259-6.401,1.863-9.606
	c-0.124,1.825-0.254,3.647-0.366,5.469c-0.305,4.941-0.43,9.93-0.486,14.908c-0.042,2.709-0.046,5.405-0.046,8.072
	c0,0.738,2.925,0.234,2.927-0.784c0.002-1.367,0.008-2.736,0.017-4.107c0.071-8.72,0.431-17.448,2.033-26.039
	c0.909-4.873,2.302-9.66,4.318-14.19c0.944-2.121,2.092-4.146,3.316-6.114c0.335-0.541,0.708-1.083,1.139-1.563
	c0.334,0.48,0.434,1.257,0.543,1.781c1.215,5.815,0.493,12.11-0.119,17.949c-0.598,5.683-1.288,11.356-1.495,17.071
	c-0.108,2.961,0.011,5.891,0.451,8.823c0.274,1.813,0.35,3.612,0.799,5.408c0.767,3.063,2.427,4.876,5.692,4.125
	c3.714-0.854,5.503-5.279,6.71-8.438c1.741-4.557,3.01-9.405,4.357-14.082c2.093-7.257,3.991-14.573,6.761-21.61
	c1.144-2.904,2.459-5.771,3.826-8.577c0.917-1.879,2.299-4.688,4.251-6.027c0.709,1.729-0.054,3.67-0.445,5.441
	c-0.562,2.551-1.103,5.092-1.788,7.615c-1.424,5.24-3.235,10.368-5.028,15.491c-1.709,4.882-3.318,9.861-4.792,14.82
	c-0.653,2.199-1.136,4.434-1.689,6.658c-0.452,1.807-0.989,3.718-0.725,5.593c0.121,0.85,2.298,0.069,2.617-0.232
	c4.102-3.887,7.084-8.714,10.938-12.822c4.267-4.548,10.13-7.025,16.067-8.575c5.741-1.498,11.733-1.953,17.649-1.948
	c5.329,0.004,11.809-0.555,16.459,2.515c0.674,0.445,2.83,0.082,2.83-0.935v-0.757C424.584,72.15,423.777,72.106,423.012,72.298z
	 M230.664,31.681c0.261-2.374,0.63-4.732,1.115-7.07c0.33-1.592,0.226-3.16,0.761-4.745c0.137-0.407,1.14-1.542,0.715-1.664
	c0.529,0.151,0.969,0.824,1.24,1.25c0.775,1.216,1.196,2.682,1.59,4.056c2.629,9.158,0.967,19.478-0.462,28.698
	c-1.364,8.819-3.392,17.644-5.787,26.27C228.88,62.855,228.969,47.137,230.664,31.681z M247.191,85.654
	c1.23-1.819,2.627-3.519,4.123-5.124c1.308-1.4,4.162-5.567,6.295-3.829c1.203,0.979,1.274,3.116,1.318,4.518
	c0.058,1.848-0.231,3.736-0.667,5.529c-0.923,3.803-1.753,7.441-3.438,11.015c-1.873,3.977-4.53,7.679-7.932,10.481
	c-1.627,1.34-4.135,2.856-6.632,3.407c-0.666-0.626-1.371-1.196-2.135-1.67C239.551,101.391,242.291,92.902,247.191,85.654z
	 M233.392,112.515c0.279,0.147,0.555,0.268,0.8,0.354c0.203,0.069,0.408,0.132,0.619,0.185c-0.241,1.757-0.435,3.521-0.584,5.288
	C233.942,116.4,233.664,114.458,233.392,112.515z"/>
</svg>
