<?xml version="1.0" encoding="utf-8"?>
<!-- Generator: Adobe Illustrator 16.0.4, SVG Export Plug-In . SVG Version: 6.00 Build 0)  -->
<!DOCTYPE svg PUBLIC "-//W3C//DTD SVG 1.1//EN" "http://www.w3.org/Graphics/SVG/1.1/DTD/svg11.dtd">
<svg version="1.1" id="Layer_1" xmlns="http://www.w3.org/2000/svg" xmlns:xlink="http://www.w3.org/1999/xlink" x="0px" y="0px"
	 width="144px" height="72px" viewBox="0 0 144 72" enable-background="new 0 0 144 72" xml:space="preserve">
<path d="M65.514,48.711c-3.184-4.066-4.91-8.998-5.896-14.019c-0.019-0.097-0.084-0.157-0.171-0.189
	c-0.25-0.487-0.743-0.656-1.324-0.542c-0.794,0.156-1.392,0.811-1.789,1.468c-0.447,0.742-0.713,1.591-0.98,2.409
	c-0.295,0.906-0.577,1.807-0.694,2.757c-0.119,0.966-0.057,2.099,0.575,2.89c0.113,0.141,0.243,0.252,0.384,0.337
	c-0.275,0.224-0.578,0.41-0.914,0.546c-2.877,1.161-3.863-3.818-4.316-5.622c-0.269-1.072-0.523-2.167-0.864-3.218
	c-0.352-1.086-1.107-2.713-2.526-2.007c-1.103,0.547-1.332,2.299-1.504,3.375c-0.025,0.154-0.046,0.309-0.065,0.463
	c-0.282-0.873-0.757-1.691-1.699-1.879c-0.183-0.037-0.448,0.059-0.566,0.203c-1.378,1.679-1.326,3.8-1.323,5.856
	c0.001,1.502,0.043,3.007,0.025,4.509c-0.166-0.783-0.31-1.572-0.478-2.354c-0.195-0.912-0.481-1.802-0.728-2.701
	c-0.261-0.95-0.518-1.902-0.827-2.839c-0.123-0.373-0.959-0.206-0.96,0.17c-0.004,1.257-0.098,2.511-0.208,3.763
	c-0.095,1.083-0.142,2.168-0.302,3.244c-0.159,1.067-0.457,2.053-0.985,2.993c-0.103,0.182-0.268,0.42-0.397,0.525
	c-0.016,0.013-0.032,0.023-0.045,0.032c-0.001-0.001-0.001-0.001-0.002-0.001c-0.061-0.02-0.205-0.144-0.295-0.249
	c-0.154-0.18-0.274-0.389-0.385-0.598c-0.267-0.505-0.447-1.062-0.617-1.605c-0.325-1.04-0.557-2.105-0.783-3.171
	c-0.289-1.355-0.498-2.729-0.726-4.097c-0.141-0.843-0.142-1.673-0.436-2.486c-0.101-0.28-0.269-0.828-0.519-1.008
	c-0.298-0.214-0.697-0.354-1.064-0.227c-1.368,0.475-1.931,2.253-2.182,3.571c-0.168-0.667-0.398-1.313-0.735-1.919
	c-0.579-1.039-1.687-1.037-2.508-0.247c-0.525,0.505-0.785,1.262-0.985,1.942c-0.226,0.768-0.344,1.566-0.438,2.358
	c-0.117,0.998-0.208,2.001-0.229,3.006c-0.007,0.294-0.009,0.587-0.011,0.881c-0.17-0.694-0.364-1.384-0.5-2.085
	c-0.267-1.379-0.532-3.073-1.544-4.129c-0.213-0.222-0.646-0.14-0.835,0.078c-0.266,0.307-0.338,0.681-0.374,1.075
	c-0.045,0.503-0.107,0.999-0.136,1.505c-0.077,1.339-0.095,2.681-0.195,4.019c-0.092,1.233-0.159,2.535-0.66,3.685
	c-0.173,0.396-0.474,0.917-0.928,0.976c-0.708,0.092-1.514-0.492-2.004-0.938c-0.748-0.678-1.254-1.561-1.589-2.511
	c0.783-0.779,1.449-1.672,1.94-2.666c0.661-1.342,0.883-2.773,0.762-4.255c-0.051-0.626-0.19-1.3-0.587-1.804
	c-0.392-0.498-1.065-0.608-1.655-0.479c-1.332,0.295-1.66,2.134-1.824,3.247c-0.277,1.884-0.302,4.058,0.305,5.957
	c-0.039,0.036-0.078,0.072-0.117,0.107c-1.801,1.628-4.14,2.675-6.535,2.998c-2.604,0.351-5.249-0.008-7.847-0.238
	c-0.225-0.021-0.514,0.071-0.624,0.285c-0.108,0.209,0.093,0.357,0.284,0.375c2.407,0.214,4.821,0.5,7.24,0.326
	c2.36-0.17,4.542-0.923,6.542-2.179c0.46-0.289,0.903-0.609,1.323-0.957c0.351,0.822,0.84,1.574,1.505,2.202
	c0.902,0.853,2.186,1.488,3.418,1.027c1.014-0.379,1.439-1.564,1.67-2.521c0.265-1.097,0.322-2.243,0.39-3.365
	c0.069-1.124,0.091-2.251,0.151-3.376c0.022-0.406,0.081-0.803,0.114-1.206c0.002-0.021,0.003-0.044,0.005-0.067
	c0.478,0.945,0.659,2.101,0.85,3.085c0.166,0.854,0.422,1.688,0.608,2.538c0.224,1.023,0.427,2.051,0.73,3.055
	c0.119,0.393,0.92,0.19,0.96-0.17c0.146-1.305,0.119-2.617,0.125-3.928c0.004-1.031,0.077-2.05,0.178-3.075
	c0.074-0.755,0.172-1.508,0.33-2.25c0.153-0.723,0.365-1.512,0.827-2.105c0.13-0.167,0.314-0.312,0.43-0.355
	c0.005,0.001,0.014,0.003,0.024,0.006c0.039,0.012,0.122,0.062,0.196,0.122c0.347,0.279,0.527,0.82,0.669,1.223
	c0.444,1.257,0.635,2.607,0.818,3.922c0.088,0.636,0.144,1.281,0.267,1.912c0.076,0.392,0.961,0.191,0.96-0.17
	c-0.003-2.103-0.194-4.329,0.575-6.333c0.192-0.5,0.453-0.942,0.806-1.345c0.008-0.009,0.234-0.186,0.141-0.187
	c0.159,0.002,0.258,0.26,0.312,0.368c0.141,0.281,0.25,0.577,0.341,0.878c0.165,0.541,0.139,1.082,0.23,1.63
	c0.114,0.684,0.229,1.367,0.345,2.051c0.216,1.271,0.448,2.532,0.738,3.788c0.268,1.159,0.566,2.342,1.078,3.421
	c0.268,0.564,0.649,1.248,1.333,1.346c0.881,0.127,1.411-0.653,1.802-1.307c0.805-1.346,0.989-3.025,1.116-4.556
	c0.067-0.812,0.14-1.625,0.201-2.439c0.25,0.9,0.529,1.793,0.729,2.706c0.382,1.751,0.632,3.541,1.289,5.218
	c0.146,0.372,0.924,0.21,0.96-0.169c0.233-2.405,0.136-4.822,0.125-7.233c-0.009-1.833-0.158-3.896,0.893-5.481
	c0.288,0.218,0.482,0.616,0.608,0.907c0.256,0.594,0.392,1.239,0.512,1.871c0.104,0.548,0.203,1.098,0.3,1.646
	c0.191,1.077,0.207,2.179,0.312,3.266c0.038,0.39,0.961,0.193,0.96-0.17c-0.007-2.589-0.339-5.202,0.212-7.761
	c0.129-0.6,0.275-1.214,0.595-1.744c0.088-0.147,0.213-0.332,0.368-0.247c0.283,0.156,0.464,0.483,0.612,0.757
	c0.623,1.15,0.84,2.575,1.165,3.835c0.356,1.381,0.672,2.78,1.275,4.08c0.551,1.188,1.416,2.324,2.814,2.453
	c1.134,0.104,2.192-0.401,3.024-1.145c0.416-0.007,0.84-0.156,1.18-0.405c0.656-0.481,0.965-1.319,1.183-2.069
	c0.256-0.883,0.35-1.813,0.456-2.723c0.026-0.224,0.05-0.448,0.073-0.673c0.01-0.04,0.02-0.079,0.029-0.119
	c1.064,3.982,2.702,7.811,5.26,11.078C64.889,49.445,65.803,49.08,65.514,48.711z M15.909,40.335
	c0.111-0.658,0.274-1.334,0.635-1.904c0.235-0.37,0.57-0.437,0.906-0.086c0.43,0.449,0.51,1.195,0.559,1.784
	c0.052,0.638,0.01,1.294-0.088,1.925c-0.221,1.422-0.964,2.729-1.913,3.818c-0.12-0.483-0.205-0.975-0.259-1.455
	C15.596,43.09,15.686,41.652,15.909,40.335z M55.61,40.645c0.083-0.965,0.383-1.887,0.68-2.803c0.268-0.828,0.552-1.662,1.004-2.41
	c0.169-0.28,0.392-0.575,0.692-0.72c0.273-0.132,0.343-0.199,0.517,0.078c0.06,0.094,0.104,0.2,0.137,0.312
	c-0.078,1.088-0.16,2.174-0.271,3.259c-0.209,0.892-0.499,1.77-0.842,2.599c-0.32,0.771-0.731,1.587-1.292,2.25
	c-0.249-0.207-0.395-0.564-0.491-0.846C55.557,41.814,55.562,41.217,55.61,40.645z"/>
<g>
	<path d="M143.949,16.639c-0.055-0.207-0.398-0.197-0.551-0.146c-4.728,1.609-9.346,3.532-13.756,5.88
		c-4.432,2.36-8.674,5.135-12.725,8.098c-2.176,1.592-4.29,3.268-6.338,5.021c-0.504,0.432-1.002,0.869-1.498,1.311
		c-0.266,0.237-0.529,0.477-0.793,0.717c-0.112,0.104-0.225,0.207-0.336,0.311c-0.066,0.051-0.125,0.11-0.172,0.179
		c-0.008,0.017-0.013,0.03-0.018,0.042c-0.064,0.138-0.18,0.266-0.298,0.384c0.21-0.551,0.437-1.096,0.644-1.645
		c0.512-1.348,1-2.706,1.402-4.09c0.332-1.142,0.662-2.36,0.59-3.56c-0.022-0.359-0.115-0.754-0.378-1.018
		c-0.394-0.396-1.03-0.352-1.513-0.176c-1.336,0.486-2.092,2.132-2.645,3.328c-0.804,1.737-1.369,3.558-1.984,5.366
		c-0.398,1.168-0.838,2.271-1.65,3.217c-0.133,0.154-0.232,0.313-0.346,0.36c0.037-0.015-0.121,0.022-0.088,0.019
		c-0.011,0.001-0.017,0.003-0.02,0.004c-0.007-0.003-0.021-0.008-0.051-0.016c-0.022-0.006-0.098-0.041-0.17-0.091
		c-0.264-0.184-0.424-0.616-0.527-0.931c-0.17-0.512-0.26-1.051-0.336-1.582c-0.18-1.23-0.246-2.475-0.397-3.708
		c-0.095-0.774-0.161-1.918-0.764-2.499c-0.637-0.614-1.803-0.357-2.329,0.262c-0.658,0.772-0.794,1.937-0.893,2.905
		c-0.006,0.047-0.008,0.094-0.013,0.141c-0.14-0.602-0.348-1.183-0.683-1.705c-0.156-0.244-0.683-0.066-0.83,0.093
		c-0.617,0.667-0.686,1.629-0.705,2.494c-0.019,0.755-0.027,1.509-0.032,2.265c-0.005,0.795-0.003,1.697-0.358,2.428
		c-0.066,0.138-0.153,0.253-0.265,0.356c-0.006,0.006-0.01,0.009-0.015,0.014c-0.016-0.011-0.037-0.026-0.07-0.051
		c-0.286-0.204-0.477-0.692-0.608-1.028c-0.22-0.56-0.37-1.147-0.504-1.733c-0.271-1.188-0.448-2.399-0.577-3.609
		c-0.021-0.211-0.041-0.422-0.058-0.633c-0.009-0.113-0.019-0.312-0.019-0.326c-0.003-0.439-0.934-0.259-0.961,0.102
		c-0.082,1.124-0.062,2.254-0.137,3.378c-0.087,1.304-0.186,2.747-0.75,3.946c-0.094,0.2-0.209,0.395-0.359,0.557
		c-0.07,0.075-0.112,0.104-0.19,0.154c-0.035,0.022-0.052,0.019-0.099,0.023c-0.479,0.051-0.982-0.796-1.189-1.188
		c-0.363-0.692-0.604-1.448-0.83-2.194c-0.254-0.835-0.518-1.669-0.742-2.513c-0.219-0.827-0.384-1.671-0.431-2.523
		c0.001-0.326,0.001-0.651,0.001-0.978c0-0.439-0.939-0.259-0.961,0.102c-0.021,0.346-0.02,0.689-0.002,1.03
		c-0.004,0.965-0.016,1.929-0.063,2.893c-0.046,0.941-0.163,1.875-0.229,2.814c-0.099,1.381-0.221,2.876-0.865,4.126
		c-0.247,0.479-0.622,0.963-1.191,1.024c-0.822,0.09-1.662-0.455-2.295-0.911c-0.795-0.573-1.483-1.3-2.115-2.044
		c-0.637-0.749-1.126-1.563-1.667-2.379c-0.096-0.144-0.196-0.285-0.3-0.424c0.008-0.053,0.016-0.104,0.023-0.157
		c0.779-0.396,1.572-0.771,2.263-1.313c0.937-0.736,1.492-1.745,1.835-2.871c0.35-1.146,0.406-2.375,0.281-3.561
		c-0.086-0.822-0.125-1.975-0.877-2.483c-0.194-0.132-0.503-0.028-0.68,0.077c-0.732,0.433-1.176,1.209-1.521,1.959
		c-0.358,0.779-0.641,1.605-0.903,2.422c-0.444,1.383-0.803,2.794-1.077,4.221c-0.068-1.507-0.113-3.014-0.13-4.521
		c0.255-0.491,0.489-0.99,0.702-1.491c0.923-2.155,1.557-4.482,2.045-6.774c0.283-1.332,0.512-2.684,0.596-4.045
		c0.062-1.013,0.11-2.224-0.406-3.139c-0.479-0.846-1.637-1.001-2.35-0.344c-0.396,0.367-0.573,0.962-0.707,1.467
		c-0.174,0.655-0.258,1.336-0.328,2.009c-0.428,4.131-0.576,8.294-0.518,12.457c-1.055,2.012-2.475,3.826-4.379,4.993
		c-0.484,0.297-1.01,0.53-1.551,0.7c-0.154,0.048-0.463,0.183-0.405,0.401c0.056,0.209,0.397,0.193,0.551,0.145
		c2.514-0.788,4.406-2.608,5.812-4.767c0.07,2.697,0.223,5.393,0.441,8.079c-0.101,1.911-0.068,3.837,0.039,5.74
		c0.141,2.496,0.498,4.979,1.251,7.367c0.12,0.382,0.263,0.757,0.437,1.118c0.169,0.348,1.021,0.143,0.956-0.257
		c-0.747-4.603-1.343-9.255-1.725-13.925c0.015-0.299,0.031-0.599,0.051-0.897c0.025-0.386,0.058-0.771,0.097-1.155
		c0.271,0.422,0.543,0.842,0.852,1.238c0.586,0.753,1.236,1.458,1.953,2.088c1.201,1.056,2.911,2.076,4.529,1.328
		c1.299-0.601,1.749-2.174,1.988-3.464c0.125-0.684,0.191-1.377,0.242-2.069c0.043-0.577,0.102-1.153,0.152-1.729
		c0.128,0.426,0.261,0.851,0.39,1.274c0.374,1.232,0.859,3.06,2.196,3.571c1.16,0.444,2.102-0.638,2.464-1.592
		c0.261-0.687,0.411-1.413,0.507-2.148c0.113,0.483,0.248,0.961,0.412,1.428c0.286,0.808,0.746,1.803,1.768,1.599
		c1.484-0.296,1.521-2.33,1.533-3.492c0.008-0.685,0.025-1.371,0.029-2.055c0.002-0.441-0.004-0.984,0.1-1.479
		c0.322,0.881,0.408,1.871,0.498,2.779c0.068,0.698,0.184,1.39,0.262,2.088c0.086,0.768,0.172,1.538,0.408,2.277
		c0.111,0.353,0.924,0.149,0.957-0.179c0.078-0.773-0.033-1.592-0.061-2.366c-0.045-1.274-0.062-2.552,0.025-3.825
		c0.067-1,0.146-2.191,0.708-3.057c0.087-0.134,0.163-0.206,0.269-0.271c-0.004,0-0.008,0.001-0.012,0.001
		c0.052-0.008,0.079-0.008,0.125,0c0.097,0.017,0.19,0.05,0.281,0.085c-0.066-0.026,0.057,0.045,0.052,0.041
		c0.114,0.101,0.192,0.236,0.254,0.372c0.423,0.933,0.456,2.076,0.554,3.079c0.117,1.208,0.195,2.433,0.459,3.621
		c0.162,0.731,0.458,1.756,1.31,1.93c0.591,0.121,1.188-0.109,1.593-0.533c0.791-0.831,1.313-1.799,1.713-2.865
		c0.721-1.926,1.27-3.901,2.1-5.786c0.303-0.687,0.639-1.36,1.044-1.992c0.255-0.396,0.726-1.149,1.225-1.212
		c0.676-0.086,0.55,1.504,0.497,1.931c-0.165,1.351-0.591,2.675-1.02,3.961c-0.592,1.77-1.381,3.479-1.936,5.258
		c-0.069,0.223,0.297,0.26,0.424,0.247c0.658-0.065,1.205-0.687,1.629-1.14c0.166-0.179,0.348-0.368,0.473-0.58
		c0.068-0.117,0.248-0.232,0.4-0.372c0.264-0.241,0.528-0.479,0.793-0.717c1.916-1.715,3.904-3.347,5.945-4.907
		c4.01-3.066,8.243-5.897,12.634-8.39c4.792-2.721,9.892-4.896,15.104-6.671C143.697,16.988,144.009,16.859,143.949,16.639z
		 M75.301,23.72c0.08-1.361,0.188-2.729,0.324-4.086c0.066-0.675,0.161-1.351,0.328-2.009c0.067-0.268,0.152-0.53,0.271-0.779
		c0.051-0.105,0.112-0.204,0.18-0.3c0.023-0.032,0.065-0.068,0.094-0.092c0.011,0,0.023,0.001,0.037,0.002
		c-0.049-0.004,0.151,0.043,0.13,0.034c0.161,0.067,0.272,0.177,0.38,0.314c0.259,0.338,0.348,0.802,0.408,1.212
		c0.184,1.238,0.014,2.539-0.17,3.768c-0.316,2.128-0.868,4.195-1.48,6.254c-0.2,0.675-0.432,1.36-0.698,2.041
		C75.113,27.957,75.176,25.836,75.301,23.72z M76.961,33.304c0.271-0.953,0.584-1.898,0.949-2.819
		c0.242-0.609,0.535-1.329,1.012-1.825c0.139,0.229,0.197,0.519,0.246,0.772c0.076,0.396,0.129,0.803,0.178,1.203
		c0.131,1.093,0.033,2.215-0.25,3.276c-0.27,1.015-0.777,1.972-1.613,2.629c-0.444,0.35-0.943,0.618-1.449,0.873
		C76.266,36.027,76.577,34.655,76.961,33.304z"/>
	<polygon points="97.904,31.68 97.904,31.68 97.904,31.68 	"/>
	<path d="M97.904,31.68C97.867,31.702,97.945,31.676,97.904,31.68L97.904,31.68z"/>
</g>
</svg>
