<?xml version="1.0" encoding="utf-8"?>
<!-- Generator: Adobe Illustrator 16.0.4, SVG Export Plug-In . SVG Version: 6.00 Build 0)  -->
<!DOCTYPE svg PUBLIC "-//W3C//DTD SVG 1.1//EN" "http://www.w3.org/Graphics/SVG/1.1/DTD/svg11.dtd">
<svg version="1.1" id="Layer_1" xmlns="http://www.w3.org/2000/svg" xmlns:xlink="http://www.w3.org/1999/xlink" x="0px" y="0px"
	 width="583.2px" height="756px" viewBox="0 0 583.2 756" enable-background="new 0 0 583.2 756" xml:space="preserve">
<pattern  x="-14.4" y="-18" width="72" height="72" patternUnits="userSpaceOnUse" id="Grid_.5_inch_Lines" viewBox="72.25 -144.25 72 72" overflow="visible">
	<g>
		<polygon fill="none" points="72.25,-144.25 144.25,-144.25 144.25,-72.25 72.25,-72.25 		"/>
		<g>
			<line fill="none" stroke="#000000" stroke-width="0.3" x1="126.25" y1="-72.5" x2="126.25" y2="0"/>
			<line fill="none" stroke="#000000" stroke-width="0.3" x1="90.25" y1="-72.5" x2="90.25" y2="0"/>
		</g>
		<g>
			<line fill="none" stroke="#000000" stroke-width="0.3" x1="144" y1="-126.25" x2="216.5" y2="-126.25"/>
			<line fill="none" stroke="#000000" stroke-width="0.3" x1="144" y1="-90.25" x2="216.5" y2="-90.25"/>
		</g>
		<g>
			<line fill="none" stroke="#000000" stroke-width="0.3" x1="72" y1="-126.25" x2="144.5" y2="-126.25"/>
			<line fill="none" stroke="#000000" stroke-width="0.3" x1="126.25" y1="-144.5" x2="126.25" y2="-72"/>
			<line fill="none" stroke="#000000" stroke-width="0.3" x1="72" y1="-90.25" x2="144.5" y2="-90.25"/>
			<line fill="none" stroke="#000000" stroke-width="0.3" x1="90.25" y1="-144.5" x2="90.25" y2="-72"/>
		</g>
		<g>
			<line fill="none" stroke="#000000" stroke-width="0.3" x1="0" y1="-126.25" x2="72.5" y2="-126.25"/>
			<line fill="none" stroke="#000000" stroke-width="0.3" x1="0" y1="-90.25" x2="72.5" y2="-90.25"/>
		</g>
		<g>
			<line fill="none" stroke="#000000" stroke-width="0.3" x1="126.25" y1="-216.5" x2="126.25" y2="-144"/>
			<line fill="none" stroke="#000000" stroke-width="0.3" x1="90.25" y1="-216.5" x2="90.25" y2="-144"/>
		</g>
	</g>
</pattern>
<rect y="-0.73" opacity="0.2" fill="url(#Grid_.5_inch_Lines)" width="583.2" height="757.462"/>
</svg>
