<?xml version="1.0" encoding="utf-8"?>
<!-- Generator: Adobe Illustrator 16.0.4, SVG Export Plug-In . SVG Version: 6.00 Build 0)  -->
<!DOCTYPE svg PUBLIC "-//W3C//DTD SVG 1.1//EN" "http://www.w3.org/Graphics/SVG/1.1/DTD/svg11.dtd">
<svg version="1.1" id="Layer_1" xmlns="http://www.w3.org/2000/svg" xmlns:xlink="http://www.w3.org/1999/xlink" x="0px" y="0px"
	 width="432px" height="288px" viewBox="0 0 432 288" enable-background="new 0 0 432 288" xml:space="preserve">
<path d="M194.927,125.108c-11.027-11.042-17.994-25.209-22.775-39.911c-0.092-0.283-0.309-0.44-0.583-0.506
	c-0.924-1.37-2.468-1.698-4.169-1.145c-2.324,0.757-3.88,2.937-4.833,5.052c-1.072,2.389-1.563,5.031-2.066,7.583
	c-0.555,2.825-1.076,5.628-1.08,8.521c-0.003,2.94,0.591,6.315,2.774,8.459c0.39,0.381,0.818,0.667,1.275,0.87
	c-0.746,0.771-1.585,1.442-2.544,1.971c-8.208,4.527-12.974-10.052-14.987-15.297c-1.197-3.119-2.355-6.311-3.759-9.338
	c-1.45-3.13-4.306-7.735-8.305-5.103c-3.109,2.041-3.16,7.378-3.288,10.669c-0.018,0.473-0.027,0.944-0.028,1.414
	c-1.162-2.517-2.884-4.799-5.777-5.02c-0.563-0.044-1.325,0.339-1.626,0.815c-3.524,5.536-2.596,11.88-1.842,18.048
	c0.55,4.504,1.223,9.003,1.713,13.514c-0.783-2.288-1.501-4.603-2.289-6.886c-0.916-2.665-2.097-5.229-3.165-7.838
	c-1.128-2.754-2.244-5.519-3.51-8.215c-0.504-1.074-2.953-0.27-2.819,0.858c0.443,3.771,0.618,7.566,0.742,11.362
	c0.109,3.283,0.363,6.555,0.273,9.841c-0.088,3.259-0.624,6.323-1.869,9.336c-0.242,0.581-0.652,1.356-1,1.72
	c-0.042,0.042-0.086,0.081-0.125,0.113c-0.002-0.003-0.004-0.002-0.008-0.002c-0.188-0.039-0.665-0.356-0.975-0.642
	c-0.528-0.482-0.965-1.065-1.371-1.652c-0.983-1.417-1.728-3.022-2.433-4.592c-1.352-3.002-2.437-6.113-3.501-9.227
	c-1.357-3.961-2.483-8.007-3.665-12.024c-0.729-2.478-1.034-4.968-2.209-7.301c-0.405-0.803-1.108-2.386-1.923-2.834
	c-0.971-0.533-2.22-0.807-3.273-0.292c-3.93,1.92-4.974,7.458-5.248,11.504c-0.746-1.939-1.671-3.795-2.9-5.488
	c-2.113-2.907-5.438-2.5-7.612,0.168c-1.393,1.706-1.896,4.07-2.25,6.186c-0.397,2.383-0.462,4.822-0.456,7.233
	c0.011,3.036,0.104,6.077,0.403,9.099c0.086,0.884,0.186,1.764,0.288,2.646c-0.763-2.021-1.595-4.02-2.257-6.072
	c-1.3-4.041-2.711-9.026-6.131-11.825c-0.719-0.587-1.99-0.186-2.477,0.537c-0.687,1.016-0.767,2.165-0.731,3.361
	c0.046,1.526,0.041,3.036,0.137,4.564c0.257,4.043,0.688,8.075,0.875,12.124c0.173,3.734,0.445,7.663-0.642,11.293
	c-0.375,1.25-1.088,2.922-2.43,3.263c-2.091,0.533-4.72-0.928-6.352-2.083c-2.489-1.764-4.328-4.226-5.678-6.955
	c2.063-2.622,3.737-5.542,4.85-8.702c1.497-4.265,1.643-8.64,0.741-13.039c-0.38-1.859-1.042-3.83-2.417-5.197
	c-1.357-1.352-3.416-1.438-5.138-0.834c-3.889,1.369-4.205,7.003-4.292,10.401c-0.146,5.752,0.567,12.281,3.078,17.758
	c-0.104,0.124-0.207,0.246-0.311,0.365c-4.812,5.539-11.446,9.527-18.515,11.367c-7.684,1.996-15.747,1.881-23.624,2.135
	c-0.681,0.019-1.517,0.399-1.768,1.08c-0.248,0.666,0.41,1.039,0.986,1.022c7.299-0.232,14.644-0.252,21.836-1.65
	c7.02-1.366,13.291-4.417,18.832-8.91c1.276-1.035,2.488-2.157,3.62-3.351c1.351,2.338,3.091,4.416,5.313,6.059
	c3.016,2.229,7.096,3.67,10.627,1.84c2.904-1.504,3.748-5.215,4.095-8.17c0.396-3.384,0.151-6.845-0.051-10.235
	c-0.202-3.396-0.545-6.785-0.772-10.181c-0.081-1.227-0.049-2.437-0.095-3.659c-0.002-0.065-0.005-0.133-0.009-0.204
	c1.776,2.662,2.738,6.061,3.668,8.945c0.808,2.5,1.879,4.908,2.746,7.393c1.043,2.989,2.026,5.996,3.299,8.897
	c0.499,1.136,2.829,0.238,2.819-0.858c-0.035-3.966-0.592-7.894-1.051-11.827c-0.361-3.095-0.513-6.177-0.583-9.29
	c-0.053-2.291-0.032-4.585,0.172-6.868c0.197-2.224,0.547-4.667,1.715-6.616c0.33-0.548,0.83-1.048,1.16-1.222
	c0.017,0.001,0.042,0.003,0.074,0.008c0.12,0.022,0.389,0.144,0.632,0.296c1.142,0.711,1.878,2.269,2.45,3.424
	c1.789,3.608,2.853,7.59,3.879,11.466c0.496,1.875,0.895,3.791,1.494,5.638c0.371,1.148,2.952,0.226,2.818-0.858
	c-0.774-6.305-2.155-12.915-0.576-19.205c0.394-1.57,1.015-2.991,1.929-4.325c0.02-0.03,0.633-0.643,0.354-0.61
	c0.479-0.053,0.87,0.684,1.071,0.99c0.525,0.792,0.96,1.641,1.342,2.51c0.691,1.562,0.811,3.194,1.282,4.805
	c0.592,2.008,1.182,4.017,1.778,6.026c1.109,3.735,2.263,7.433,3.591,11.094c1.223,3.381,2.548,6.819,4.476,9.869
	c1.008,1.597,2.4,3.51,4.485,3.553c2.69,0.062,3.996-2.47,4.931-4.573c1.926-4.329,1.868-9.433,1.692-14.069
	c-0.093-2.458-0.172-4.926-0.284-7.391c1.076,2.61,2.238,5.187,3.167,7.853c1.782,5.114,3.182,10.392,5.762,15.183
	c0.572,1.062,2.847,0.295,2.819-0.855c-0.175-7.299-1.345-14.514-2.254-21.742c-0.692-5.496-1.889-11.631,0.687-16.767
	c0.942,0.549,1.671,1.674,2.154,2.5c0.984,1.688,1.625,3.576,2.217,5.427c0.51,1.605,1.006,3.218,1.495,4.83
	c0.966,3.162,1.414,6.46,2.121,9.682c0.254,1.155,2.954,0.231,2.819-0.859c-0.959-7.762-2.906-15.481-2.181-23.355
	c0.171-1.846,0.385-3.741,1.151-5.448c0.213-0.474,0.518-1.073,1.014-0.875c0.904,0.367,1.566,1.281,2.111,2.048
	c2.285,3.225,3.454,7.419,4.886,11.081c1.568,4.012,3.024,8.096,5.305,11.776c2.085,3.361,5.089,6.458,9.331,6.336
	c3.441-0.099,6.43-2,8.656-4.531c1.245-0.172,2.464-0.774,3.393-1.644c1.792-1.683,2.415-4.308,2.797-6.637
	c0.447-2.741,0.389-5.567,0.377-8.332c-0.002-0.681-0.011-1.363-0.024-2.046c0.015-0.124,0.029-0.245,0.044-0.369
	c4.639,11.56,10.939,22.448,19.801,31.321C193.321,127.537,195.929,126.111,194.927,125.108z M43.092,117.994
	c0.096-2.014,0.339-4.102,1.214-5.942c0.57-1.197,1.551-1.517,2.686-0.586c1.452,1.191,1.965,3.399,2.324,5.148
	c0.388,1.895,0.498,3.877,0.434,5.806c-0.146,4.345-1.902,8.535-4.353,12.148c-0.534-1.407-0.967-2.849-1.305-4.271
	C43.154,126.372,42.902,122.026,43.092,117.994z M162.292,104.507c-0.1-2.925,0.464-5.799,1.021-8.654
	c0.504-2.581,1.054-5.186,2.137-7.594c0.404-0.902,0.966-1.868,1.813-2.41c0.771-0.495,0.956-0.721,1.579,0.047
	c0.213,0.259,0.384,0.562,0.524,0.887c0.161,3.291,0.311,6.579,0.369,9.874c-0.304,2.751-0.854,5.489-1.58,8.101
	c-0.681,2.43-1.62,5.024-3.059,7.217c-0.819-0.53-1.39-1.55-1.778-2.358C162.557,108.037,162.354,106.241,162.292,104.507z"/>
<g>
	<path d="M418.558,0.423c-0.238-0.601-1.268-0.447-1.707-0.236c-13.594,6.543-26.75,13.989-39.125,22.631
		c-12.435,8.689-24.154,18.553-35.229,28.911c-5.947,5.563-11.681,11.359-17.187,17.36c-1.354,1.479-2.691,2.972-4.02,4.476
		c-0.709,0.809-1.414,1.621-2.116,2.438c-0.3,0.351-0.6,0.703-0.896,1.053c-0.182,0.177-0.334,0.377-0.45,0.599
		c-0.018,0.053-0.027,0.096-0.04,0.133c-0.143,0.436-0.44,0.862-0.753,1.258c0.431-1.727,0.911-3.445,1.333-5.166
		c1.046-4.228,2.018-8.48,2.724-12.777c0.58-3.544,1.128-7.321,0.475-10.891c-0.197-1.07-0.619-2.22-1.502-2.915
		c-1.323-1.046-3.22-0.681-4.602,0.021c-3.831,1.943-5.501,7.154-6.725,10.943c-1.779,5.503-2.814,11.169-4.003,16.818
		c-0.772,3.648-1.689,7.115-3.783,10.248c-0.342,0.512-0.583,1.025-0.906,1.207c0.107-0.057-0.355,0.111-0.258,0.088
		c-0.032,0.007-0.048,0.014-0.055,0.019c-0.023-0.006-0.068-0.016-0.159-0.029c-0.071-0.009-0.308-0.087-0.543-0.209
		c-0.857-0.456-1.495-1.695-1.918-2.602c-0.697-1.473-1.163-3.056-1.584-4.622c-0.985-3.627-1.637-7.333-2.538-10.979
		c-0.566-2.289-1.181-5.694-3.198-7.219c-2.135-1.611-5.538-0.417-6.892,1.631c-1.694,2.556-1.678,6.097-1.624,9.039
		c0.002,0.143,0.012,0.285,0.016,0.427c-0.639-1.753-1.474-3.421-2.668-4.867c-0.557-0.677-2.072,0.049-2.456,0.579
		c-1.608,2.226-1.465,5.136-1.21,7.738c0.219,2.271,0.467,4.535,0.727,6.804c0.275,2.387,0.606,5.092-0.194,7.413
		c-0.149,0.437-0.368,0.813-0.664,1.165c-0.015,0.019-0.026,0.03-0.039,0.047c-0.051-0.027-0.121-0.067-0.23-0.127
		c-0.93-0.51-1.68-1.905-2.197-2.864c-0.863-1.599-1.526-3.308-2.14-5.018c-1.244-3.464-2.216-7.034-3.043-10.617
		c-0.14-0.625-0.277-1.25-0.401-1.877c-0.069-0.336-0.169-0.928-0.175-0.973c-0.168-1.315-2.895-0.436-2.845,0.654
		c0.162,3.402,0.631,6.784,0.817,10.182c0.21,3.942,0.438,8.308-0.819,12.11c-0.21,0.634-0.483,1.259-0.875,1.799
		c-0.186,0.251-0.301,0.355-0.516,0.533c-0.098,0.08-0.147,0.075-0.287,0.106c-1.417,0.327-3.235-2.031-3.999-3.133
		c-1.342-1.946-2.336-4.125-3.288-6.281c-1.064-2.412-2.158-4.818-3.139-7.268c-0.956-2.401-1.757-4.873-2.207-7.412
		c-0.115-0.979-0.233-1.956-0.352-2.934c-0.159-1.318-2.912-0.435-2.845,0.654c0.061,1.045,0.189,2.076,0.366,3.091
		c0.34,2.896,0.653,5.792,0.861,8.7c0.203,2.841,0.191,5.683,0.332,8.525c0.207,4.178,0.384,8.708-1.097,12.692
		c-0.566,1.527-1.516,3.114-3.203,3.505c-2.432,0.568-5.15-0.763-7.213-1.9c-2.594-1.431-4.923-3.36-7.087-5.364
		c-2.182-2.015-3.946-4.28-5.864-6.53c-0.338-0.396-0.692-0.784-1.053-1.162c0.004-0.162,0.008-0.32,0.013-0.481
		c2.194-1.472,4.436-2.882,6.311-4.761c2.542-2.549,3.844-5.777,4.46-9.279c0.634-3.562,0.358-7.271-0.446-10.783
		c-0.557-2.435-1.094-5.877-3.534-7.13c-0.632-0.326-1.52,0.098-2.01,0.478c-2.04,1.563-3.088,4.054-3.854,6.429
		c-0.791,2.468-1.337,5.048-1.83,7.592c-0.83,4.31-1.394,8.672-1.698,13.051c-0.752-4.495-1.434-8.999-2.031-13.512
		c0.586-1.565,1.107-3.147,1.565-4.728c1.985-6.801,3.041-14.01,3.674-21.063c0.366-4.099,0.561-8.236,0.316-12.35
		c-0.178-3.06-0.474-6.71-2.357-9.267c-1.741-2.363-5.272-2.409-7.172-0.178c-1.055,1.245-1.369,3.093-1.588,4.656
		c-0.284,2.028-0.288,4.101-0.254,6.145c0.216,12.546,1.283,25.088,2.971,37.555c-2.435,6.417-6.036,12.375-11.322,16.567
		c-1.345,1.067-2.837,1.958-4.398,2.664c-0.444,0.199-1.322,0.715-1.068,1.351c0.243,0.606,1.261,0.436,1.706,0.233
		c7.255-3.277,12.269-9.424,15.704-16.408c1.189,8.065,2.626,16.095,4.258,24.073c0.393,5.77,1.188,11.535,2.199,17.204
		c1.33,7.437,3.303,14.753,6.429,21.646c0.501,1.101,1.063,2.173,1.717,3.195c0.633,0.982,3.115,0.057,2.774-1.117
		c-3.913-13.535-7.388-27.275-10.23-41.144c-0.063-0.901-0.122-1.807-0.172-2.71c-0.065-1.166-0.108-2.332-0.13-3.5
		c0.964,1.168,1.934,2.328,3.004,3.405c2.03,2.045,4.237,3.925,6.616,5.554c3.987,2.73,9.485,5.17,14.068,2.339
		c3.678-2.273,4.457-7.156,4.705-11.112c0.128-2.096,0.076-4.2-0.023-6.295c-0.081-1.746-0.113-3.497-0.17-5.243
		c0.536,1.232,1.09,2.458,1.63,3.682c1.57,3.561,3.69,8.865,7.885,9.914c3.642,0.913,6.072-2.676,6.812-5.669
		c0.534-2.154,0.722-4.388,0.741-6.628c0.516,1.408,1.094,2.792,1.756,4.132c1.151,2.319,2.892,5.137,5.881,4.155
		c4.345-1.427,3.718-7.542,3.331-11.033c-0.225-2.055-0.421-4.121-0.657-6.173c-0.156-1.324-0.369-2.952-0.237-4.471
		c1.285,2.524,1.904,5.465,2.502,8.155c0.459,2.069,1.054,4.103,1.543,6.168c0.537,2.271,1.075,4.552,2.052,6.683
		c0.464,1.017,2.824,0.113,2.805-0.883c-0.045-2.349-0.678-4.763-1.04-7.076c-0.597-3.807-1.113-7.632-1.312-11.483
		c-0.161-3.025-0.358-6.627,1.012-9.426c0.214-0.433,0.415-0.678,0.709-0.912c-0.013,0.001-0.024,0.005-0.037,0.007
		c0.152-0.042,0.236-0.052,0.377-0.046c0.297,0.016,0.588,0.081,0.873,0.153c-0.207-0.054,0.187,0.114,0.169,0.104
		c0.381,0.259,0.664,0.639,0.898,1.024c1.607,2.643,2.12,6.062,2.779,9.034c0.789,3.581,1.47,7.226,2.69,10.696
		c0.754,2.135,2.015,5.1,4.63,5.312c1.815,0.148,3.526-0.76,4.584-2.178c2.073-2.78,3.287-5.873,4.099-9.216
		c1.46-6.038,2.391-12.164,4.195-18.119c0.658-2.17,1.423-4.312,2.409-6.355c0.621-1.282,1.759-3.711,3.231-4.08
		c1.997-0.503,2.196,4.312,2.192,5.611c-0.005,4.109-0.801,8.237-1.619,12.25c-1.134,5.523-2.879,10.935-3.896,16.475
		c-0.127,0.693,0.985,0.671,1.36,0.587c1.951-0.436,3.365-2.497,4.473-4.011c0.434-0.596,0.909-1.23,1.206-1.911
		c0.163-0.376,0.661-0.787,1.067-1.261c0.701-0.82,1.41-1.631,2.118-2.439c5.125-5.84,10.494-11.456,16.05-16.877
		c10.916-10.654,22.586-20.683,34.852-29.754c13.386-9.9,27.893-18.278,42.885-25.494C417.93,1.563,418.816,1.064,418.558,0.423z
		 M215.211,46.59c-0.255-4.112-0.428-8.252-0.512-12.374c-0.045-2.048-0.006-4.109,0.256-6.146c0.104-0.827,0.265-1.645,0.531-2.435
		c0.112-0.335,0.262-0.654,0.429-0.965c0.06-0.105,0.173-0.229,0.25-0.31c0.031-0.004,0.069-0.006,0.112-0.007
		c-0.149,0.006,0.468,0.074,0.4,0.055c0.508,0.144,0.881,0.432,1.254,0.805c0.9,0.92,1.335,2.279,1.664,3.488
		c1,3.648,0.963,7.612,0.86,11.363c-0.179,6.498-1.083,12.9-2.172,19.296c-0.355,2.097-0.8,4.238-1.353,6.376
		C216.188,59.368,215.604,52.983,215.211,46.59z M223.671,74.736c0.465-2.958,1.063-5.908,1.823-8.802
		c0.505-1.917,1.123-4.182,2.372-5.843c0.501,0.639,0.78,1.484,1.019,2.228c0.373,1.16,0.679,2.361,0.97,3.545
		c0.79,3.23,0.904,6.631,0.439,9.919c-0.438,3.141-1.615,6.196-3.884,8.471c-1.205,1.21-2.605,2.196-4.029,3.145
		C222.573,83.157,223.01,78.929,223.671,74.736z"/>
	<polygon points="285.903,62.26 285.903,62.26 285.903,62.26 	"/>
	<path d="M285.903,62.26C285.8,62.34,286.023,62.232,285.903,62.26L285.903,62.26z"/>
</g>
</svg>
