<?xml version="1.0" encoding="utf-8"?>
<!-- Generator: Adobe Illustrator 16.0.4, SVG Export Plug-In . SVG Version: 6.00 Build 0)  -->
<!DOCTYPE svg PUBLIC "-//W3C//DTD SVG 1.1//EN" "http://www.w3.org/Graphics/SVG/1.1/DTD/svg11.dtd">
<svg version="1.1" id="Layer_1" xmlns="http://www.w3.org/2000/svg" xmlns:xlink="http://www.w3.org/1999/xlink" x="0px" y="0px"
	 width="144px" height="144px" viewBox="0 0 144 144" enable-background="new 0 0 144 144" xml:space="preserve">
<path stroke="#000000" stroke-width="4" stroke-miterlimit="10" d="M133.09,118.723c0,12.017-9.742,21.76-21.76,21.76H34.263
	c-12.018,0-21.76-9.743-21.76-21.76V41.656c0-12.018,9.743-21.76,21.76-21.76h77.067c12.018,0,21.76,9.742,21.76,21.76V118.723z"/>
<path fill="#FFFFFF" stroke="#000000" stroke-width="4" stroke-miterlimit="10" d="M107.784,106.139
	c0,13.71-11.114,24.824-24.824,24.824H59.169c-13.71,0-24.824-11.114-24.824-24.824V82.348c0-13.71,11.114-24.825,24.824-24.825
	H82.96c13.71,0,24.824,11.115,24.824,24.825V106.139z"/>
<path fill="#FFFFFF" stroke="#000000" stroke-width="4" stroke-miterlimit="10" d="M110.42,35.763c0,4.256-3.451,7.707-7.707,7.707
	l0,0c-4.256,0-7.707-3.451-7.707-7.707l0,0c0-4.256,3.451-7.707,7.707-7.707l0,0C106.969,28.056,110.42,31.507,110.42,35.763
	L110.42,35.763z"/>
<path fill="#FFFFFF" stroke="#000000" stroke-width="4" stroke-miterlimit="10" d="M125.833,35.763c0,4.256-3.451,7.707-7.707,7.707
	l0,0c-4.256,0-7.706-3.451-7.706-7.707l0,0c0-4.256,3.45-7.707,7.706-7.707l0,0C122.382,28.056,125.833,31.507,125.833,35.763
	L125.833,35.763z"/>
<circle fill="none" stroke="#000000" stroke-miterlimit="10" cx="71.064" cy="94.243" r="21.76"/>
<circle fill="none" stroke="#000000" stroke-miterlimit="10" cx="71.064" cy="94.243" r="17.453"/>
<circle fill="none" stroke="#000000" stroke-miterlimit="10" cx="71.148" cy="94.16" r="12.091"/>
<rect x="23.833" y="8.11" stroke="#000000" stroke-miterlimit="10" width="13.751" height="14.506"/>
<line fill="none" stroke="#ED1C24" stroke-width="2" stroke-miterlimit="10" x1="23.833" y1="6.75" x2="23.833" y2="52.083"/>
<line fill="none" stroke="#FFF200" stroke-width="2" stroke-miterlimit="10" x1="27.308" y1="6.75" x2="27.308" y2="52.084"/>
<line fill="none" stroke="#2BB673" stroke-width="2" stroke-miterlimit="10" x1="30.331" y1="6.75" x2="30.331" y2="52.084"/>
<line fill="none" stroke="#21409A" stroke-width="2" stroke-miterlimit="10" x1="33.504" y1="6.75" x2="33.504" y2="52.084"/>
<line fill="none" stroke="#662D91" stroke-width="2" stroke-miterlimit="10" x1="36.678" y1="6.75" x2="36.678" y2="52.084"/>
</svg>
